<svg id="avatar" xmlns="http://www.w3.org/2000/svg" xmlns:xlink="http://www.w3.org/1999/xlink" width="48" height="48" viewBox="0 0 48 48">
  <defs>
    <linearGradient id="linear-gradient" x1="0.083" y1="0.972" x2="0.937" y2="0.037" gradientUnits="objectBoundingBox">
      <stop offset="0" stop-color="#7fd4ff"/>
      <stop offset="1" stop-color="#008bb6"/>
    </linearGradient>
    <clipPath id="clip-path">
      <ellipse id="Ellipse_6" data-name="Ellipse 6" cx="24" cy="24" rx="24" ry="24" fill="none"/>
    </clipPath>
  </defs>
  <ellipse id="Ellipse_5" data-name="Ellipse 5" cx="24" cy="24" rx="24" ry="24" transform="translate(0)" fill="url(#linear-gradient)"/>
  <g id="Mask_Group_3" data-name="Mask Group 3" clip-path="url(#clip-path)">
    <g id="Group_7" data-name="Group 7" transform="translate(0.956 5.012)">
      <path id="Path_46" data-name="Path 46" d="M456.718,150.774s-.764-4.226.121-7.182a3.942,3.942,0,0,1,2.652-2.64c.024-.007.469-2.96,6.542-3.183s10.888,2.363,9.706,13.021l-1.516,2.409-8.245-7.964s-7.065,4.57-7.688,6.741S456.718,150.774,456.718,150.774Z" transform="translate(-443.295 -137.756)" fill="#3b2645"/>
      <path id="Path_47" data-name="Path 47" d="M477.561,213.024H432.088s0-13.342,2.064-14.656,15.224-5.639,15.224-5.639h10.9s13.155,4.325,15.218,5.639S477.561,213.024,477.561,213.024Z" transform="translate(-432.088 -163.085)" fill="#f5a784"/>
      <path id="Path_48" data-name="Path 48" d="M475.044,186.844l-5.12.862v.142l-.426-.067-.418.067v-.142l-4.935-.862.267-2.153.585-4.735h9.011l.5,3.357Z" transform="translate(-446.858 -157.199)" fill="#f5a784"/>
      <path id="Path_49" data-name="Path 49" d="M474.737,183.313a19.408,19.408,0,0,1-10.1,1.378l.585-4.735h9.012Z" transform="translate(-447.086 -157.199)" fill="#e0855c"/>
      <path id="Path_50" data-name="Path 50" d="M488.482,163.887s.751-2.972,2.62-1.655,0,5.661-2.633,5.636C488.469,167.869,487.766,164.956,488.482,163.887Z" transform="translate(-457.923 -148.878)" fill="#f5a784"/>
      <path id="Path_51" data-name="Path 51" d="M491.046,165.086a2.409,2.409,0,0,0-.954.791,2.914,2.914,0,0,0-.648,1.05c-.031.12.138.173.208.091.2-.229.345-.494.525-.739a1.361,1.361,0,0,0,.543.337c.163.039.257-.168.173-.288a1.223,1.223,0,0,0-.456-.347,6.371,6.371,0,0,0,.75-.707A.122.122,0,0,0,491.046,165.086Z" transform="translate(-458.512 -150.345)" fill="#e0855c"/>
      <path id="Path_52" data-name="Path 52" d="M456.928,163.366s-.751-2.972-2.62-1.655,0,5.661,2.634,5.637C456.941,167.348,457.644,164.435,456.928,163.366Z" transform="translate(-441.977 -148.638)" fill="#f5a784"/>
      <path id="Path_53" data-name="Path 53" d="M456.009,164.565a2.41,2.41,0,0,1,.954.791,2.913,2.913,0,0,1,.648,1.05c.031.12-.138.173-.207.091-.2-.23-.345-.494-.525-.739a1.355,1.355,0,0,1-.542.336c-.163.04-.257-.167-.174-.287a1.227,1.227,0,0,1,.456-.347,6.366,6.366,0,0,1-.749-.707A.122.122,0,0,1,456.009,164.565Z" transform="translate(-443.033 -150.105)" fill="#e0855c"/>
      <path id="Path_54" data-name="Path 54" d="M475.135,152.017c-1.754-8.413-8.205-7.823-8.205-7.823s-6.451-.59-8.205,7.823a16.129,16.129,0,0,0,.75,9.361c1.138,2.8,3.322,5.808,7.455,5.808s6.318-3.012,7.456-5.808A16.127,16.127,0,0,0,475.135,152.017Z" transform="translate(-444.191 -140.718)" fill="#f5a784"/>
      <path id="Path_55" data-name="Path 55" d="M473.523,165.673c-.377-.037-1.225.229-1.421-.167a10.955,10.955,0,0,1,.408-2.693,33.66,33.66,0,0,0,.686-3.578.07.07,0,0,0-.132-.029,41.3,41.3,0,0,0-1.394,6.545.186.186,0,0,0,.189.224c.548-.036,1.088.053,1.636.029C473.678,166,473.716,165.692,473.523,165.673Z" transform="translate(-450.323 -147.622)" fill="#e0855c"/>
      <path id="Path_56" data-name="Path 56" d="M469.341,175.7h5.187s-.972,1.838-2.593,1.838S469.341,175.7,469.341,175.7Z" transform="translate(-449.252 -155.237)" fill="#fff"/>
      <path id="Path_57" data-name="Path 57" d="M467.094,162.5s-.709.264-.6-.992c.1-1.129.6-.977.6-.977s.492,0,.418.984S467.094,162.5,467.094,162.5Z" transform="translate(-447.934 -148.248)" fill="#3b2645"/>
      <path id="Path_58" data-name="Path 58" d="M479.647,162.5s-.709.264-.6-.992c.1-1.129.6-.977.6-.977s.493,0,.418.984S479.647,162.5,479.647,162.5Z" transform="translate(-453.718 -148.248)" fill="#3b2645"/>
      <path id="Path_59" data-name="Path 59" d="M467.486,157.122c-.61-.311-1.75-.393-2.193.241a.189.189,0,0,0,.162.283c.3-.015.571-.162.874-.188a2.467,2.467,0,0,1,.953.147A.266.266,0,0,0,467.486,157.122Z" transform="translate(-447.374 -146.57)" fill="#3b2645"/>
      <path id="Path_60" data-name="Path 60" d="M480.039,157.122c-.609-.311-1.749-.393-2.193.241a.189.189,0,0,0,.163.283c.3-.015.57-.162.874-.188a2.468,2.468,0,0,1,.953.147A.265.265,0,0,0,480.039,157.122Z" transform="translate(-453.157 -146.57)" fill="#3b2645"/>
      <path id="Path_61" data-name="Path 61" d="M465.18,144.614s3.844.785,6.463-.664,7.032,6,6.908,9.1l.824-3.531-3.944-7.466-7.494-.558S464.456,143.384,465.18,144.614Z" transform="translate(-447.289 -139.481)" fill="#3b2645"/>
      <path id="Path_62" data-name="Path 62" d="M461.448,147.176a22.127,22.127,0,0,0-3.654,8.146l-.814-1.427S458.314,146.016,461.448,147.176Z" transform="translate(-443.557 -142.043)" fill="#3b2645"/>
      <path id="Path_63" data-name="Path 63" d="M477.561,213.024H432.088s0-13.342,2.064-14.656a29.281,29.281,0,0,1,3.868-1.672c2.207-.839,4.906-1.782,7.124-2.544,2.4-.822,4.232-1.423,4.232-1.423l5.314,9.584,5.584-9.584s1.832.6,4.238,1.428c2.119.723,4.679,1.623,6.825,2.428a30.834,30.834,0,0,1,4.155,1.782C477.561,199.682,477.561,213.024,477.561,213.024Z" transform="translate(-432.088 -163.085)" fill="#dadeea"/>
      <path id="Path_64" data-name="Path 64" d="M474.338,202.275l-1.471-2.767h-2.155l-1.471,2.767.213,1.841.972,1.887-.672,8.343,1.963,1.328v.1l.073-.049.073.049v-.1l1.963-1.328L473.154,206l.972-1.887Z" transform="translate(-449.206 -166.208)" fill="#3b2645"/>
      <path id="Path_65" data-name="Path 65" d="M460.408,191.561l2.282-2.824,4.04,5.809-1.352,4.6Z" transform="translate(-445.136 -161.245)" fill="#b8c3e3"/>
      <path id="Path_66" data-name="Path 66" d="M482.2,191.327l-2.117-2.916-4.237,5.984,1.33,4.6Z" transform="translate(-452.248 -161.095)" fill="#b8c3e3"/>
    </g>
  </g>
</svg>
